<?xml version="1.0" standalone="no"?>
<!DOCTYPE svg PUBLIC "-//W3C//DTD SVG 20010904//EN"
 "http://www.w3.org/TR/2001/REC-SVG-20010904/DTD/svg10.dtd">
<svg version="1.0" xmlns="http://www.w3.org/2000/svg"
 width="361.000000pt" height="361.000000pt" viewBox="0 0 361.000000 361.000000"
 preserveAspectRatio="xMidYMid meet">
<metadata>
Created by potrace 1.11, written by Peter Selinger 2001-2013
</metadata>
<g transform="translate(0.000000,361.000000) scale(0.100000,-0.100000)"
fill="#000000" stroke="none">
<path d="M1210 3594 c-356 -56 -643 -329 -723 -685 -18 -83 -19 -274 -1 -359
19 -91 55 -181 144 -355 308 -602 578 -1132 645 -1265 32 -63 62 -120 68 -127
10 -14 11 -12 211 382 76 149 140 273 145 278 4 4 53 -91 110 -210 123 -260
151 -293 231 -284 15 2 158 68 435 201 83 40 195 94 250 120 396 189 394 188
415 222 11 18 20 45 20 59 0 15 -35 101 -78 190 -43 90 -103 216 -133 279
-133 282 -173 354 -209 378 -45 30 -104 28 -106 -5 -2 -39 -12 -49 -81 -82
-74 -36 -111 -41 -127 -19 -12 16 -26 11 -260 -104 -54 -26 -102 -48 -107 -48
-4 0 16 47 46 104 58 112 99 222 110 299 4 26 12 47 17 47 19 0 97 -60 138
-107 22 -26 53 -69 68 -95 15 -26 32 -48 38 -48 12 0 72 28 91 42 20 15 -45
115 -132 204 -57 58 -98 89 -142 110 -55 26 -62 32 -63 59 -4 153 -73 341
-173 475 -198 264 -522 396 -847 344z m329 -379 c160 -66 269 -185 315 -346 9
-30 18 -72 19 -94 4 -39 2 -41 -58 -81 -77 -50 -120 -98 -162 -178 -34 -65
-59 -162 -62 -243 -2 -59 -274 -92 -401 -49 -300 102 -447 432 -319 714 64
142 177 241 331 292 91 30 246 23 337 -15z m283 -717 c-16 -35 -46 -81 -65
-103 l-36 -40 16 50 c9 28 23 61 32 75 23 36 73 91 79 86 2 -3 -9 -33 -26 -68z
m554 -594 c82 -29 119 -122 82 -206 l-19 -45 45 -91 44 -91 -51 -24 -52 -24
-45 91 c-44 88 -46 91 -92 104 -115 32 -155 175 -71 254 48 44 97 54 159 32z"/>
<path d="M635 673 c-45 -9 -100 -60 -131 -120 -28 -54 -32 -69 -30 -135 2 -96
39 -175 104 -222 40 -28 51 -31 121 -31 57 0 84 5 104 18 30 19 44 19 39 0 -2
-9 11 -13 43 -13 l45 0 0 135 0 135 -103 0 -102 0 -2 -40 -2 -40 55 0 c60 0
66 -9 39 -59 -30 -58 -122 -76 -179 -35 -81 60 -76 262 9 314 59 36 140 18
169 -38 12 -24 19 -27 60 -26 26 1 49 3 52 6 11 12 -24 75 -59 105 -20 18 -53
37 -74 42 -37 11 -118 13 -158 4z"/>
<path d="M1709 663 c0 -20 0 -461 1 -480 0 -9 17 -13 50 -13 l50 0 0 90 0 90
78 0 c91 0 144 24 174 80 27 48 21 135 -12 183 -39 56 -73 67 -215 67 -112 0
-125 -2 -126 -17z m262 -92 c26 -32 25 -86 -4 -115 -19 -19 -35 -23 -90 -25
l-67 -2 0 87 0 86 71 -4 c60 -3 74 -8 90 -27z"/>
<path d="M2330 635 l0 -45 50 0 49 0 -1 45 -1 45 -48 0 -49 0 0 -45z"/>
<path d="M1061 535 c-71 -32 -101 -93 -97 -198 2 -47 9 -74 26 -102 43 -69
151 -95 230 -55 37 19 80 67 80 89 0 19 -88 13 -110 -7 -30 -28 -76 -27 -105
2 -14 14 -25 34 -25 46 0 19 6 20 125 20 l125 0 -5 46 c-6 60 -39 128 -72 149
-36 24 -129 29 -172 10z m131 -98 c32 -40 24 -47 -58 -47 -73 0 -75 1 -69 23
17 58 90 73 127 24z"/>
<path d="M1423 532 c-67 -35 -95 -80 -99 -165 -6 -133 77 -216 205 -205 101 9
162 81 162 192 0 69 -13 103 -55 148 -45 47 -151 62 -213 30z m121 -72 c31
-12 46 -39 50 -94 4 -49 -14 -100 -41 -114 -28 -15 -83 -6 -106 16 -14 14 -21
37 -24 74 -4 61 10 97 47 115 30 15 41 16 74 3z"/>
<path d="M2230 533 c-14 -9 -28 -22 -32 -27 -4 -6 -8 -1 -8 12 0 19 -5 22 -44
22 -54 0 -52 10 -48 -208 l3 -163 47 3 47 3 1 100 c2 137 1 133 24 153 22 18
24 19 65 21 23 1 25 5 25 51 0 48 -1 50 -28 50 -15 0 -39 -8 -52 -17z"/>
<path d="M2330 355 l0 -185 49 0 48 0 1 185 0 185 -49 0 -49 0 0 -185z"/>
<path d="M2466 498 c40 -109 114 -321 114 -325 0 -2 23 -3 52 -1 51 3 52 3 69
48 32 85 109 305 109 313 0 4 -22 7 -49 7 l-48 0 -32 -102 c-18 -57 -35 -111
-39 -121 -5 -13 -18 17 -45 102 l-38 121 -54 0 -54 0 15 -42z"/>
</g>
</svg>
